<?xml version="1.0" encoding="UTF-8"?>
<!-- Generator: Adobe Illustrator 15.0.0, SVG Export Plug-In . SVG Version: 6.00 Build 0)  -->
<!DOCTYPE svg PUBLIC "-//W3C//DTD SVG 1.1//EN" "http://www.w3.org/Graphics/SVG/1.1/DTD/svg11.dtd">
<svg version="1.1" id="Layer_1" xmlns:x="http://ns.adobe.com/Extensibility/1.0/" xmlns:i="http://ns.adobe.com/AdobeIllustrator/10.0/" xmlns:graph="http://ns.adobe.com/Graphs/1.0/" xmlns="http://www.w3.org/2000/svg" xmlns:xlink="http://www.w3.org/1999/xlink" xmlns:a="http://ns.adobe.com/AdobeSVGViewerExtensions/3.0/" x="0px" y="0px" width="64px" height="64px" viewBox="0 0 64 64" enable-background="new 0 0 64 64" xml:space="preserve">
<radialGradient id="SVGID_1_" cx="387.5117" cy="-667.7529" r="46.1358" gradientTransform="matrix(0.7109 0.7199 -0.6555 0.6638 -682.9304 184.4449)" gradientUnits="userSpaceOnUse">
	<stop offset="0.4364" style="stop-color:#FFC940"/>
	<stop offset="0.6859" style="stop-color:#FFC73E"/>
	<stop offset="0.7967" style="stop-color:#FFC039"/>
	<stop offset="0.88" style="stop-color:#FFB330"/>
	<stop offset="0.903" style="stop-color:#FFAE2C"/>
	<a:midPointStop offset="0.4364" style="stop-color:#FFC940"/>
	<a:midPointStop offset="0.844" style="stop-color:#FFC940"/>
	<a:midPointStop offset="0.903" style="stop-color:#FFAE2C"/>
</radialGradient>
<path fill="url(#SVGID_1_)" d="M49.982,12.256c-5.934,6.245-0.643,12.667-3.805,13.036c-0.822,0.092-3.168-2.602-3.168-2.602  c-4.031-4.242-9.648-10.017-17.977-18.448c-4.188-4.244-10.426,2.066-6.232,6.314c-1.051-1.066-2.125-2.154-3.227-3.271  c-4.186-4.238-10.459,2.039-6.234,6.313c1.129,1.145,2.197,2.229,3.229,3.271c-4.184-4.234-10.418,2.077-6.236,6.312  c0.893,0.904,2.945,2.98,5.367,5.436c-4.352-4.039-9.428,1.285-5.395,5.659c4.59,4.975,14.027,14.987,19.082,20.091  c7.246,7.314,18.063,9.848,25.932,1.57c17.109-17.997,0.375-26.265,4.678-43.598C56.527,10.192,52.945,9.141,49.982,12.256z"/>
<path fill="#0FB4D4" d="M43.021,15.579c-3.895-7.869-10.709-9.912-10.778-9.932c-1.354-0.391-0.932-1.883,0.422-1.488  c0.305,0.088,7.534,2.256,11.729,10.727C44.996,16.104,43.66,16.87,43.021,15.579z"/>
<path fill="#0FB4D4" d="M45.043,10.356c-1.896-4.781-6.688-6.781-6.736-6.801c-1.318-0.537-0.748-1.971,0.572-1.438  c0.221,0.088,5.443,2.25,7.586,7.662C46.957,11.016,45.57,11.688,45.043,10.356z"/>
<path fill="#0FB4D4" d="M17.003,51.853c-7.568-1.092-9.748-8.501-9.838-8.815c-0.387-1.367,1.082-1.793,1.475-0.426  c0.08,0.275,2.012,6.761,8.576,7.708C18.591,50.517,18.222,52.032,17.003,51.853z"/>
<path fill="#0FB4D4" d="M15.992,57.019C7.47,55.944,4.261,48.604,4.13,48.292c-0.563-1.322,0.844-1.932,1.408-0.611  c0.029,0.068,3.016,6.838,10.643,7.801C17.552,55.653,17.208,57.173,15.992,57.019z"/>
<path fill="#DB942D" d="M45.307,25.019c-2.965,3.25-2.676,13.28,3.254,18.77c-4.768-5.578-4.1-15.649-1.088-18.618L45.307,25.019z"/>
<path fill="#DB942D" d="M49.422,11.719c-5.627,5.803-1.787,12.515-3.248,12.806c-0.594,0.117-1.949-1.992-20.604-20.829  c-3.656-3.691-8.818-0.537-8.928,3.584l-0.533-0.539c-4.92-4.969-12.27,2.406-7.32,7.406l0.541,0.549  c-4.008,0.109-7.225,5.31-3.549,9.032l2.646,2.68c-3.869,0.027-6.051,4.754-2.691,8.397c4.559,4.941,13.984,14.944,19.1,20.11  c9.508,9.6,20.182,8.762,27.04,1.568c17.502-18.36,0.627-26.91,4.857-43.958C57.439,9.668,53.186,7.84,49.422,11.719z   M55.244,12.151c-4.379,17.657,12.344,25.556-4.482,43.252c-5.834,6.135-15.381,7.967-24.84-1.584  C20.818,48.665,11.41,38.682,6.859,33.748c-3.383-3.668,0.711-7.905,4.314-4.561l11.961,12.108l1.086-1.094L6.869,22.634  c-2.674-2.705-0.148-6.392,2.59-6.39c0.914,0,1.799,0.406,2.557,1.172c0,0.002,17.354,17.566,17.354,17.566l1.086-1.094  L9.876,13.053c-3.469-3.502,1.688-8.709,5.145-5.221l20.583,20.835l1.086-1.096L19.279,9.942c-3.428-3.604,1.797-8.592,5.205-5.15  c19.26,19.444,19.987,21.495,21.774,21.272c4.313-0.541-1.535-7.285,4.271-13.271C52.885,10.366,55.566,10.844,55.244,12.151z"/>
</svg>