<?xml version="1.0" encoding="UTF-8"?>
<!-- Generator: Adobe Illustrator 15.0.0, SVG Export Plug-In . SVG Version: 6.00 Build 0)  -->
<!DOCTYPE svg PUBLIC "-//W3C//DTD SVG 1.1//EN" "http://www.w3.org/Graphics/SVG/1.1/DTD/svg11.dtd">
<svg version="1.1" id="Layer_1" xmlns:x="http://ns.adobe.com/Extensibility/1.0/" xmlns:i="http://ns.adobe.com/AdobeIllustrator/10.0/" xmlns:graph="http://ns.adobe.com/Graphs/1.0/" xmlns="http://www.w3.org/2000/svg" xmlns:xlink="http://www.w3.org/1999/xlink" xmlns:a="http://ns.adobe.com/AdobeSVGViewerExtensions/3.0/" x="0px" y="0px" width="64px" height="64px" viewBox="0 0 64 64" enable-background="new 0 0 64 64" xml:space="preserve">
<path fill="#473834" d="M40.418,50.742c15.168-6.066,13.65-20.475,13.65-20.475H11.601c0,0-1.516,14.408,13.648,20.475  c0,0,3.035,0.76,7.584,0.76C37.385,51.502,40.418,50.742,40.418,50.742z"/>
<linearGradient id="SVGID_1_" gradientUnits="userSpaceOnUse" x1="48.002" y1="51.498" x2="48.0019" y2="6.1149">
	<stop offset="0.05" style="stop-color:#473834"/>
	<stop offset="0.2266" style="stop-color:#594640"/>
	<stop offset="0.5197" style="stop-color:#715950"/>
	<stop offset="0.7" style="stop-color:#7A6056"/>
	<a:midPointStop offset="0.05" style="stop-color:#473834"/>
	<a:midPointStop offset="0.4" style="stop-color:#473834"/>
	<a:midPointStop offset="0.7" style="stop-color:#7A6056"/>
</linearGradient>
<path fill="url(#SVGID_1_)" d="M48.168,31.805c1.553,6.533,0.734,13-7.75,18.938c9.102-1.516,15.168-10.109,15.168-16.703  L48.168,31.805z"/>
<linearGradient id="SVGID_2_" gradientUnits="userSpaceOnUse" x1="1763.1445" y1="51.498" x2="1763.1445" y2="6.1149" gradientTransform="matrix(-1 0 0 1 1780.8145 0)">
	<stop offset="0.05" style="stop-color:#473834"/>
	<stop offset="0.2266" style="stop-color:#594640"/>
	<stop offset="0.5197" style="stop-color:#715950"/>
	<stop offset="0.7" style="stop-color:#7A6056"/>
	<a:midPointStop offset="0.05" style="stop-color:#473834"/>
	<a:midPointStop offset="0.4" style="stop-color:#473834"/>
	<a:midPointStop offset="0.7" style="stop-color:#7A6056"/>
</linearGradient>
<path fill="url(#SVGID_2_)" d="M17.501,31.805c-1.551,6.533-0.732,13,7.752,18.938c-9.102-1.516-15.168-10.109-15.168-16.703  L17.501,31.805z"/>
<path fill="#302C3B" d="M12.967,52.718c2.417-1.288,12.774-4.708,12.774-4.708l14.186-0.029c0,0,10.427,3.441,12.829,4.734  c3.491,1.872,4.226,4.429,4.226,6.845c0,1.881-16.13,2.675-29.747,2.381L8.687,59.56C8.687,57.14,9.466,54.583,12.967,52.718z"/>
<path fill="#302C3B" d="M25.335,49.947c0,0,2.361,2.832,7.5,2.832c5.141,0,7.5-2.832,7.5-2.832v-8.035h-15V49.947z"/>
<path fill="#FFC940" d="M32.835,8.277c-11.006,0-16.307,8.961-15.645,20.485c0.137,2.316,0.781,5.658,1.576,8.52  c1.65,5.951,10.359,11.945,14.068,11.945c3.708,0,12.417-5.994,14.069-11.945c0.795-2.861,1.439-6.203,1.574-8.52  C49.141,17.238,43.842,8.277,32.835,8.277z"/>
<path fill="#D47706" d="M32.833,39.871c-2.578-1.135-2.6-0.045-6.58,0.221c1.494,1.697,2.594,3.879,6.578,3.879  c4.575,0,5.348-2.479,6.586-3.879C35.432,39.826,35.416,38.736,32.833,39.871z"/>
<path fill="#FFFFFF" d="M27.449,40.516c2.6,2.705,8.206,2.668,10.772,0.002C34.219,40.947,31.451,40.947,27.449,40.516z"/>
<path fill="#966F42" d="M44.529,24.928c-2.391-1.424-6.68-1.6-8.377-0.629c-0.359,0.197-0.264,1.227,0.049,1.098  c2.42-1.008,6.107-1.059,8.379,0.107C44.885,25.658,44.893,25.135,44.529,24.928z"/>
<path fill="#966F42" d="M21.14,24.928c2.391-1.424,6.678-1.6,8.379-0.629c0.359,0.197,0.264,1.227-0.049,1.098  c-2.422-1.008-6.105-1.061-8.381,0.107C20.785,25.658,20.779,25.135,21.14,24.928z"/>
<path fill="#F0A429" d="M35.309,36.215c-0.262-0.184-0.877,0.098-2.475,0.098c-1.598,0-2.211-0.281-2.473-0.098  c-0.314,0.221,0.184,1.217,2.473,1.217C35.123,37.432,35.625,36.436,35.309,36.215z"/>
<path id="Path_154_" fill="#FFFFFF" d="M30.386,29.252c0.094,0.727-0.4,1.59-1.77,2.238c-0.869,0.41-2.678,0.895-5.055-0.107  c-1.066-0.449-2.104-1.848-2.01-2.621C22.839,26.334,29.181,25.979,30.386,29.252z"/>
<linearGradient id="Oval_1_" gradientUnits="userSpaceOnUse" x1="-424.4526" y1="477.4404" x2="-424.4526" y2="478.1992" gradientTransform="matrix(6.5701 0 0 -6.5701 2814.7805 3168.5281)">
	<stop offset="0" style="stop-color:#A6694A"/>
	<stop offset="1" style="stop-color:#4F2A1E"/>
	<a:midPointStop offset="0" style="stop-color:#A6694A"/>
	<a:midPointStop offset="0.5" style="stop-color:#A6694A"/>
	<a:midPointStop offset="1" style="stop-color:#4F2A1E"/>
</linearGradient>
<circle id="Oval_26_" fill="url(#Oval_1_)" cx="26.083" cy="29.201" r="2.49"/>
<path id="Path_148_" fill="#1A1626" d="M24.839,29.156c0,1.723,2.492,1.723,2.492,0C27.332,27.557,24.839,27.557,24.839,29.156z"/>
<path id="Path_147_" fill="#AB968C" d="M24.46,28.459c0,0.723,1.045,0.723,1.045,0C25.505,27.789,24.46,27.789,24.46,28.459z"/>
<path id="Path_146_" fill="#45332C" d="M30.398,29.348c-1.012-3.252-7.908-2.771-8.846-0.586  C21.9,25.963,29.537,25.225,30.398,29.348z"/>
<path id="Path_145_" fill="#FFFFFF" d="M35.283,29.252c-0.092,0.727,0.402,1.59,1.771,2.238c0.869,0.41,2.678,0.895,5.055-0.107  c1.066-0.449,2.104-1.848,2.01-2.621C42.832,26.334,36.49,25.979,35.283,29.252z"/>
<linearGradient id="Oval_2_" gradientUnits="userSpaceOnUse" x1="-425.105" y1="477.4404" x2="-425.105" y2="478.1992" gradientTransform="matrix(6.5701 0 0 -6.5701 2832.511 3168.5281)">
	<stop offset="0" style="stop-color:#A6694A"/>
	<stop offset="1" style="stop-color:#4F2A1E"/>
	<a:midPointStop offset="0" style="stop-color:#A6694A"/>
	<a:midPointStop offset="0.5" style="stop-color:#A6694A"/>
	<a:midPointStop offset="1" style="stop-color:#4F2A1E"/>
</linearGradient>
<circle id="Oval_25_" fill="url(#Oval_2_)" cx="39.529" cy="29.201" r="2.49"/>
<path id="Path_144_" fill="#1A1626" d="M38.285,29.156c0,1.723,2.492,1.723,2.492,0C40.777,27.557,38.285,27.557,38.285,29.156z"/>
<path id="Path_143_" fill="#AB968C" d="M37.906,28.459c0,0.723,1.045,0.723,1.045,0C38.951,27.789,37.906,27.789,37.906,28.459z"/>
<path id="Path_142_" fill="#45332C" d="M35.273,29.348c1.01-3.25,7.902-2.785,8.846-0.586C43.77,25.963,36.135,25.225,35.273,29.348  z"/>
<linearGradient id="SVGID_3_" gradientUnits="userSpaceOnUse" x1="32.8359" y1="51.501" x2="32.8359" y2="6.1139">
	<stop offset="0.05" style="stop-color:#473834"/>
	<stop offset="0.2266" style="stop-color:#594640"/>
	<stop offset="0.5197" style="stop-color:#715950"/>
	<stop offset="0.7" style="stop-color:#7A6056"/>
	<a:midPointStop offset="0.05" style="stop-color:#473834"/>
	<a:midPointStop offset="0.4" style="stop-color:#473834"/>
	<a:midPointStop offset="0.7" style="stop-color:#7A6056"/>
</linearGradient>
<path fill="url(#SVGID_3_)" d="M45.221,9.884c1.258-1.793-9.387-5.582-19.438-3.023C15.744,9.16,10.085,24.201,10.085,34.039  c0.898,0.713,6.396-1.064,7.416-2.234c0.416-1.721,1.072-3.492,1.684-5.328c7.539-4.365,16.071-5.393,21.993-10.617  c-0.76,2.275,3.256,5.145,5.309,10.617c0.666,1.775,1.26,3.555,1.682,5.328c1.674,1.541,5.014,2.268,7.418,2.234  C55.586,25.719,49.244,8.724,45.221,9.884z"/>
<path fill="#473834" d="M11.892,32.543c6.945-9.248,29.44-8.621,33.329-22.659C37.67,21.666,13.791,23.654,11.892,32.543z"/>
<path fill="#302C3B" d="M58.436,47.111l-3.503-0.932c-0.208-2.227,0.206-4.598,1.369-5.887c1.43-1.584,4.971-1.26,4.396,2.424  C60.354,44.939,58.436,47.111,58.436,47.111z"/>
<path fill="#1A1626" d="M55.597,46.436l-0.345-0.076c0,0-0.506-2.668,0.708-5.121C55.068,44.344,55.597,46.436,55.597,46.436z"/>
<path fill="#1A1626" d="M55.995,46.521l-0.342-0.074c0,0-0.016-3.232,1.195-5.686C55.96,43.867,55.995,46.521,55.995,46.521z"/>
<path fill="#1A1626" d="M56.426,47.924l-0.344-0.076c0,0-0.014-3.23,1.197-5.684C56.389,45.268,56.426,47.924,56.426,47.924z"/>
<path fill="#E81C27" d="M58.756,35.543c0,0,3.058,1.014,2.035,7.006c-0.229,1.35-0.509-1.979-1.28-0.727  c-0.328,0.537-0.509-1.736-1.488-0.76c-0.656,0.654-0.211-1.594-1.63-0.676C55.15,41.188,58.815,37.635,58.756,35.543z"/>
<path fill="#7D625A" d="M50.702,61.267c0,0,1.199-4.435,2.689-9.804c2.104-1.229,3.515,0.936,3.515,0.936  c-1.491,5.369-2.241,8.283-2.241,8.283C52.579,61.356,50.702,61.267,50.702,61.267z"/>
<path fill="#B3C2C6" d="M58.436,47.111c-0.24,0.855-1.294,4.434-1.529,5.287c-1.135-0.434-2.3-0.791-3.515-0.936  c0.238-0.854,1.304-4.43,1.541-5.283C56.148,46.322,57.301,46.678,58.436,47.111z"/>
<radialGradient id="SVGID_4_" cx="18.4141" cy="67.5938" r="10.6634" gradientTransform="matrix(1.0064 0.0263 -0.0264 0.9997 -1.5767 -15.2697)" gradientUnits="userSpaceOnUse">
	<stop offset="0" style="stop-color:#FDDF98"/>
	<stop offset="1" style="stop-color:#D6B768"/>
	<a:midPointStop offset="0" style="stop-color:#FDDF98"/>
	<a:midPointStop offset="0.5" style="stop-color:#FDDF98"/>
	<a:midPointStop offset="1" style="stop-color:#D6B768"/>
</radialGradient>
<path fill="url(#SVGID_4_)" d="M7.498,60.499c-1.531-0.852-4.633-7.651-4.493-12.954c0.242-9.171,15.595-0.872,24.229,14.396  C27.233,61.94,9.497,61.61,7.498,60.499z"/>
<radialGradient id="SVGID_5_" cx="18.8496" cy="66.4492" r="2.4221" gradientTransform="matrix(1.0064 0.0263 -0.0264 0.9997 -1.5767 -15.2697)" gradientUnits="userSpaceOnUse">
	<stop offset="0.2121" style="stop-color:#FF3B3B"/>
	<stop offset="0.4183" style="stop-color:#F63131"/>
	<stop offset="0.7712" style="stop-color:#DE1615"/>
	<stop offset="1" style="stop-color:#CC0100"/>
	<a:midPointStop offset="0.2121" style="stop-color:#FF3B3B"/>
	<a:midPointStop offset="0.5879" style="stop-color:#FF3B3B"/>
	<a:midPointStop offset="1" style="stop-color:#CC0100"/>
</radialGradient>
<path fill="url(#SVGID_5_)" d="M13.237,50.362c-0.821,1.789,0.491,1.163,1.268,2.606c0.452,0.838,0.753,1.008,1.595,0.714  c0.543-0.189,1.462,0.349,1.874-0.007C19.546,52.313,14.56,47.48,13.237,50.362z"/>
<radialGradient id="SVGID_6_" cx="23.4673" cy="72.2266" r="2.5068" gradientTransform="matrix(1.0064 0.0263 -0.0264 0.9997 -1.5767 -15.2697)" gradientUnits="userSpaceOnUse">
	<stop offset="0" style="stop-color:#FFE357"/>
	<stop offset="0.1836" style="stop-color:#FFDF51"/>
	<stop offset="0.4321" style="stop-color:#FFD440"/>
	<stop offset="0.7164" style="stop-color:#FFC123"/>
	<stop offset="1" style="stop-color:#FFAA00"/>
	<a:midPointStop offset="0" style="stop-color:#FFE357"/>
	<a:midPointStop offset="0.6424" style="stop-color:#FFE357"/>
	<a:midPointStop offset="1" style="stop-color:#FFAA00"/>
</radialGradient>
<path fill="url(#SVGID_6_)" d="M22.227,59.782c0.31-0.308-0.025-0.867,0.007-1.235c0.074-0.884,0.708-0.832,0.154-1.823  c-0.614-1.097-2.492-2.121-3.69-1.609c-1.831,0.785-0.755,2.07,0.035,3.423C19.291,59.493,21.243,60.768,22.227,59.782z"/>
<radialGradient id="SVGID_7_" cx="11.4873" cy="64.1406" r="2.8066" gradientTransform="matrix(1.0064 0.0263 -0.0264 0.9997 -1.5767 -15.2697)" gradientUnits="userSpaceOnUse">
	<stop offset="0" style="stop-color:#2289C7"/>
	<stop offset="0.2907" style="stop-color:#1A7EB9"/>
	<stop offset="0.842" style="stop-color:#066093"/>
	<stop offset="1" style="stop-color:#005687"/>
	<a:midPointStop offset="0" style="stop-color:#2289C7"/>
	<a:midPointStop offset="0.5636" style="stop-color:#2289C7"/>
	<a:midPointStop offset="1" style="stop-color:#005687"/>
</radialGradient>
<path fill="url(#SVGID_7_)" d="M10.719,50.876c0.772-1.23,0.954-1.944-0.562-3.047c-1.507-1.098-2.58-1.864-4.107-0.76  c-1.857,1.347,0.262,1.904,0.667,3.343C7.182,52.069,9.897,52.188,10.719,50.876z"/>
<radialGradient id="SVGID_8_" cx="13.5742" cy="71.834" r="2.8328" gradientTransform="matrix(1.0064 0.0263 -0.0264 0.9997 -1.5767 -15.2697)" gradientUnits="userSpaceOnUse">
	<stop offset="0" style="stop-color:#9BE022"/>
	<stop offset="0.2668" style="stop-color:#91D422"/>
	<stop offset="0.7474" style="stop-color:#78B423"/>
	<stop offset="1" style="stop-color:#69A123"/>
	<a:midPointStop offset="0" style="stop-color:#9BE022"/>
	<a:midPointStop offset="0.5758" style="stop-color:#9BE022"/>
	<a:midPointStop offset="1" style="stop-color:#69A123"/>
</radialGradient>
<path fill="url(#SVGID_8_)" d="M12.066,55.464c-1.364-1.383-2.686-1.862-4.415-0.365c-0.951,0.823,0.031,0.986,0.235,1.728  c0.218,0.781-0.526,1.262,0.509,1.721c0.784,0.346,3.469,1.741,4.367,0.753C13.645,58.328,12.731,56.139,12.066,55.464z"/>
<path fill="#1A1626" d="M32.835,51.703c-5.139,0-7.5-2.477-7.5-2.477s2.361,3.336,7.5,3.336c5.141,0,7.5-3.336,7.5-3.336  S37.977,51.703,32.835,51.703z"/>
</svg>