<svg width="180" height="36" viewBox="0 0 180 36" fill="none" xmlns="http://www.w3.org/2000/svg">
<path fill-rule="evenodd" clip-rule="evenodd" d="M18 25.905L27.27 31.5L24.81 20.955L33 13.86L22.215 12.93L18 3L13.785 12.93L3 13.86L11.175 20.955L8.73 31.5L18 25.905Z" fill="#FFF256"/>
<path fill-rule="evenodd" clip-rule="evenodd" d="M54 25.905L63.27 31.5L60.81 20.955L69 13.86L58.215 12.93L54 3L49.785 12.93L39 13.86L47.175 20.955L44.73 31.5L54 25.905Z" fill="#FFF256"/>
<path fill-rule="evenodd" clip-rule="evenodd" d="M90 25.905L99.27 31.5L96.81 20.955L105 13.86L94.215 12.93L90 3L85.785 12.93L75 13.86L83.175 20.955L80.73 31.5L90 25.905Z" fill="#FFF256"/>
<path fill-rule="evenodd" clip-rule="evenodd" d="M126 25.905L135.27 31.5L132.81 20.955L141 13.86L130.215 12.93L126 3L121.785 12.93L111 13.86L119.175 20.955L116.73 31.5L126 25.905Z" fill="#FFF256"/>
<path fill-rule="evenodd" clip-rule="evenodd" d="M162 25.905L171.27 31.5L168.81 20.955L177 13.86L166.215 12.93L162 3L157.785 12.93L147 13.86L155.175 20.955L152.73 31.5L162 25.905Z" fill="#F4F4F4"/>
<path d="M157.785 12.93L162 3V25.905L152.73 31.5L155.175 20.955L147 13.86L157.785 12.93Z" fill="#FFF256"/>
</svg>
